<svg xmlns="http://www.w3.org/2000/svg" width="100" height="100" fill="none"><g transform="translate(6.5 10.39)"><path d="M 0 16.571 C 0 7.419 7.419 0 16.571 0 L 70.429 0 C 79.581 0 87 7.419 87 16.571 L 87 62.143 C 87 71.295 79.581 78.714 70.429 78.714 L 16.571 78.714 C 7.419 78.714 0 71.295 0 62.143 Z" fill="transparent" stroke-width="12.43" stroke="var(--token-b8338ba6-8378-4bba-ab00-584482e5f1fd, rgb(0, 0, 0)) /* {&quot;name&quot;:&quot;Icon BW&quot;} */" stroke-linecap="round" stroke-linejoin="round" stroke-dasharray=""></path><path d="M 0 16.571 C 0 7.419 7.419 0 16.571 0 L 70.429 0 C 79.581 0 87 7.419 87 16.571 L 87 62.143 C 87 71.295 79.581 78.714 70.429 78.714 L 16.571 78.714 C 7.419 78.714 0 71.295 0 62.143 Z" fill="var(--token-b8338ba6-8378-4bba-ab00-584482e5f1fd, rgb(0, 0, 0)) /* {&quot;name&quot;:&quot;Icon BW&quot;} */" opacity="0.2"></path><path d="M 0 16.571 L 36.681 42.249 C 39.532 44.242 43.325 44.242 46.176 42.249 L 82.857 16.571" fill="transparent" stroke-width="12.43" stroke="var(--token-b8338ba6-8378-4bba-ab00-584482e5f1fd, rgb(0, 0, 0)) /* {&quot;name&quot;:&quot;Icon BW&quot;} */" stroke-linecap="round" stroke-linejoin="round" stroke-dasharray=""></path></g></svg>