<svg xmlns="http://www.w3.org/2000/svg" width="100" height="100" fill="none"><g transform="translate(7.25 7.25)"><path d="M 0 18 C 0 8.059 8.059 0 18 0 L 67.5 0 C 77.441 0 85.5 8.059 85.5 18 L 85.5 67.5 C 85.5 77.441 77.441 85.5 67.5 85.5 L 18 85.5 C 8.059 85.5 0 77.441 0 67.5 Z" fill="var(--token-b8338ba6-8378-4bba-ab00-584482e5f1fd, rgb(0, 0, 0)) /* {&quot;name&quot;:&quot;Icon BW&quot;} */" opacity="0.2"></path><path d="M 0 18 C 0 8.059 8.059 0 18 0 L 67.5 0 C 77.441 0 85.5 8.059 85.5 18 L 85.5 67.5 C 85.5 77.441 77.441 85.5 67.5 85.5 L 18 85.5 C 8.059 85.5 0 77.441 0 67.5 Z" fill="transparent" stroke-width="13.5" stroke="var(--token-b8338ba6-8378-4bba-ab00-584482e5f1fd, rgb(0, 0, 0)) /* {&quot;name&quot;:&quot;Icon BW&quot;} */" stroke-linecap="round" stroke-linejoin="round"></path><path d="M 4.5 40.5 L 85.5 40.5 M 31.5 0 L 31.5 36 M 49.5 45 L 49.5 85.5" fill="transparent" stroke-width="9" stroke="var(--token-b8338ba6-8378-4bba-ab00-584482e5f1fd, rgb(0, 0, 0)) /* {&quot;name&quot;:&quot;Icon BW&quot;} */" stroke-miterlimit="10" stroke-dasharray=""></path></g></svg>